<?xml version="1.0" encoding="UTF-8"?>
<svg id="Layer_1" data-name="Layer 1" xmlns="http://www.w3.org/2000/svg" viewBox="0 0 958 159.73">
  <defs>
    <style>
      .cls-1 {
        fill: #fff;
        stroke-width: 0px;
      }
    </style>
  </defs>
  <path class="cls-1" d="m881.6,67.18c-2.71,0-5.4.16-8.05-.1-.78-.07-1.73-1.16-2.15-2-5.1-10.39-13.13-17.35-24.34-20.23-23.54-6.04-45.96,12.46-44.81,36.82.83,17.55,13.08,31.38,30.29,34.19,16.99,2.78,34.22-6.98,40.38-22.87.21-.55.34-1.12.56-1.88h-35.4v-7.74c15.15,0,30.24,0,45.34,0-.57,21.53-18.9,40.1-41.27,41.94-24.83,2.05-46.16-15.71-48.99-40.71-2.69-23.85,15.02-46.46,38.84-49.6,25.77-3.4,45.74,15.21,49.59,32.17Z"/>
  <path class="cls-1" d="m3.74,104.17c0-2.9,1.35-5.02,3.94-6.19,2.44-1.1,4.98-1.97,7.5-2.89,42.02-15.35,84.05-30.7,126.08-46.05,1.06-.39,2.11-.78,3.18-1.13,4.73-1.57,8.28-.03,9.89,4.28,1.75,4.69.2,8.37-4.62,10.14-20.96,7.69-41.96,15.26-62.94,22.91-24.06,8.78-48.15,17.5-72.14,26.45-5.57,2.08-10.81-1.54-10.89-7.51Z"/>
  <path class="cls-1" d="m.02,70.57c-.12-4.69,2.59-8.31,8.46-10.42,37.62-13.56,75.17-27.33,112.71-41.11,6.47-2.38,9.26-1.61,14.67,4.51,2.84,3.21,1.38,7.78-2.9,9.39-8.99,3.39-18.05,6.58-27.07,9.89-30.88,11.32-61.75,22.66-92.63,33.98-1.63.6-3.26,1.17-4.91,1.69-4.9,1.53-8.64-1.42-8.33-7.93Z"/>
  <path class="cls-1" d="m159.02,87.38c-.17,6.71-2.14,9.55-8.4,11.83-37.72,13.78-75.48,27.48-113.16,41.37-5.49,2.02-9.71.99-13.54-3.2-3.95-4.33-3.02-8.92,2.47-10.93,26.59-9.72,53.19-19.38,79.79-29.08,14.23-5.19,28.45-10.43,42.67-15.64.65-.24,1.29-.5,1.96-.7,4.75-1.38,8.34,1.4,8.21,6.35Z"/>
  <path class="cls-1" d="m353.83,34.88c24.9-.11,45.33,20.17,45.43,45.09.1,24.95-20.08,45.3-45.06,45.44-25.16.14-45.38-19.96-45.46-45.21-.08-25.05,19.98-45.22,45.09-45.33Zm.09,81.36c20.09.03,36.11-15.9,36.25-36.03.14-19.79-16.16-36.14-36.13-36.26-19.86-.12-36.14,16.15-36.15,36.13-.01,20.19,15.86,36.12,36.03,36.15Z"/>
  <path class="cls-1" d="m750.52,89.73c8.98,11.51,17.81,22.81,27,34.6-4.27,0-8.09.08-11.91-.08-.61-.03-1.23-1.1-1.73-1.77-7.66-10.27-15.35-20.52-22.9-30.87-1.18-1.62-2.39-2.2-4.29-2.08-2.41.15-4.83.04-7.58.04v34.66h-9.16V36.47c.62-.08,1.27-.25,1.92-.25,8.66-.02,17.32-.09,25.98.02,11.07.14,19.89,4.61,25.26,14.47,8.43,15.48-1.35,35.23-18.73,38.33-1.17.21-2.34.42-3.87.69Zm-21.3-44.3v35.34c.96,0,1.72,0,2.49,0,6.66-.03,13.35.25,19.98-.16,8.37-.52,14.81-7.95,15.27-16.93.46-9.04-5.04-17.27-13.3-18.08-8.03-.78-16.19-.17-24.45-.17Z"/>
  <path class="cls-1" d="m479.7,129.6c-16.53-23.49-32.63-46.37-48.73-69.24-.17.04-.34.09-.5.13v63.75h-8.95V30.91c16.52,23.48,32.64,46.37,48.76,69.27.17-.06.34-.12.51-.18v-63.62h8.91v93.22Z"/>
  <path class="cls-1" d="m292,63.11c-2.85,0-5.63.17-8.37-.1-.92-.09-1.94-1.17-2.54-2.06-8.07-11.85-19.28-17.47-33.5-16.16-17.44,1.6-31.03,17.88-30.7,36.08.32,17.6,12.26,31.99,28.99,34.93,13.3,2.34,27.28-3.69,34.53-15.23,1.6-2.55,3.25-3.65,6.19-3.25,1.78.24,3.62.04,5.84.04-.58,1.42-.98,2.61-1.53,3.72-13.77,27.98-52.61,34.23-73.57,7.63-19.01-24.13-8.51-61.16,20.41-71.39,21.07-7.45,46.28,4.11,54.24,24.89.06.15,0,.33,0,.89Z"/>
  <path class="cls-1" d="m586.11,63.11c-2.88,0-5.66.15-8.4-.09-.86-.07-1.86-1.04-2.39-1.86-6.25-9.6-15.08-14.78-26.39-16.44-13.64-2-31.75,7.93-36.54,25.4-5.09,18.61,4.26,37.76,21.61,44.14,14.9,5.48,32.19-.35,40.68-13.92,1.42-2.26,2.87-3.32,5.53-3.02,1.96.22,3.96.04,6.32.04-.38,1.03-.63,1.82-.96,2.57-7.86,17.58-26.95,28.09-46.02,25.35-18.8-2.7-34.44-18.44-37.07-37.3-2.93-20.98,6.98-40.17,25.32-49.03,21.53-10.41,49.85.9,58.31,23.28.06.15,0,.33,0,.86Z"/>
  <path class="cls-1" d="m905.84,124.23V36.39h52.11v8.26h-42.86v31.31h41.53v8.68h-41.53v31.25h42.9v8.34h-52.16Z"/>
  <path class="cls-1" d="m693.87,36.38v8.38h-42.98v31.19h41.71v8.61h-41.64v31.31h42.87v8.35h-52.01V36.38h52.04Z"/>
  <path class="cls-1" d="m77.74,159.73c-3.05-.32-5.82-.51-8.55-.91-3.24-.48-5.01-2.21-5.27-4.84-.26-2.67,1.15-4.64,4.21-5.76,20.96-7.67,41.91-15.32,62.87-22.98.49-.18.97-.37,1.47-.51,2.94-.86,5.37-.15,6.68,1.95,1.36,2.17,1.28,4.88-.85,6.89-4.32,4.09-8.55,8.41-13.41,11.76-14.22,9.79-30.21,14.23-47.16,14.41Z"/>
  <path class="cls-1" d="m78.86,0c3.45.23,6.91.38,10.35.7,3.36.32,5.19,1.99,5.56,4.81.37,2.84-.72,4.59-4,5.79-21.2,7.75-42.42,15.48-63.65,23.16-3.57,1.29-5.83.66-7.37-1.71-1.42-2.19-1.13-4.63.95-6.85,7.54-8.05,16.24-14.49,26.43-18.84C57.26,2.73,67.75.02,78.86,0Z"/>
  <path class="cls-1" d="m615.71,124.28h-9.07v-2.81c0-27.36.05-54.72-.07-82.08-.01-2.78.87-3.46,3.38-3.21,1.86.19,3.76.04,5.77.04v88.06Z"/>
</svg>