<?xml version="1.0" encoding="UTF-8"?>
<svg id="Concierge_Mark" data-name="Concierge Mark" xmlns="http://www.w3.org/2000/svg" viewBox="0 0 159.73 159.73">
  <defs>
    <style>
      .cls-1 {
        fill: #fff;
        stroke-width: 0px;
      }
    </style>
  </defs>
  <path class="cls-1" d="m3.74,104.17c0-2.9,1.35-5.02,3.94-6.19,2.44-1.1,4.98-1.97,7.5-2.89,42.02-15.35,84.05-30.7,126.08-46.05,1.06-.39,2.11-.78,3.18-1.13,4.73-1.57,8.28-.03,9.89,4.28,1.75,4.69.2,8.37-4.62,10.14-20.96,7.69-41.96,15.26-62.94,22.91-24.06,8.78-48.15,17.5-72.14,26.45-5.57,2.08-10.81-1.54-10.89-7.51Z"/>
  <path class="cls-1" d="m.02,70.57c-.12-4.69,2.59-8.31,8.46-10.42,37.62-13.56,75.17-27.33,112.71-41.11,6.47-2.38,9.26-1.61,14.67,4.51,2.84,3.21,1.38,7.78-2.9,9.39-8.99,3.39-18.05,6.58-27.07,9.89-30.88,11.32-61.75,22.66-92.63,33.98-1.63.6-3.26,1.17-4.91,1.69-4.9,1.53-8.64-1.42-8.33-7.93Z"/>
  <path class="cls-1" d="m159.02,87.38c-.17,6.71-2.14,9.55-8.4,11.83-37.72,13.78-75.48,27.48-113.16,41.37-5.49,2.02-9.71.99-13.54-3.2-3.95-4.33-3.02-8.92,2.47-10.93,26.59-9.72,53.19-19.38,79.79-29.08,14.23-5.19,28.45-10.43,42.67-15.64.65-.24,1.29-.5,1.96-.7,4.75-1.38,8.34,1.4,8.21,6.35Z"/>
  <path class="cls-1" d="m77.74,159.73c-3.05-.32-5.82-.51-8.55-.91-3.24-.48-5.01-2.21-5.27-4.84-.26-2.67,1.15-4.64,4.21-5.76,20.96-7.67,41.91-15.32,62.87-22.98.49-.18.97-.37,1.47-.51,2.94-.86,5.37-.15,6.68,1.95,1.36,2.17,1.28,4.88-.85,6.89-4.32,4.09-8.55,8.41-13.41,11.76-14.22,9.79-30.21,14.23-47.16,14.41Z"/>
  <path class="cls-1" d="m78.86,0c3.45.23,6.91.38,10.35.7,3.36.32,5.19,1.99,5.56,4.81.37,2.84-.72,4.59-4,5.79-21.2,7.75-42.42,15.48-63.65,23.16-3.57,1.29-5.83.66-7.37-1.71-1.42-2.19-1.13-4.63.95-6.85,7.54-8.05,16.24-14.49,26.43-18.84C57.26,2.73,67.75.02,78.86,0Z"/>
</svg>
